<svg width="1440" height="560" viewBox="0 0 1440 560" fill="none" xmlns="http://www.w3.org/2000/svg">
<g clip-path="url(#clip0_141_543)">
<mask id="mask0_141_543" style="mask-type:luminance" maskUnits="userSpaceOnUse" x="0" y="0" width="1440" height="560">
<path d="M1440 0H0V560H1440V0Z" fill="white"/>
</mask>
<g mask="url(#mask0_141_543)">
<path d="M1560 560H0V408.37C37.28 365.65 77.28 362.93 120 400.21C151.54 383.743 175.54 391.28 192 422.82C214.313 365.133 254.313 347.45 312 369.77C366.253 344.023 406.253 358.277 432 412.53C465.267 397.797 489.267 407.067 504 440.34C523.907 412.24 547.907 408.143 576 428.05C607.587 379.637 647.587 371.223 696 402.81C709.84 368.65 733.84 358.49 768 372.33C786.62 342.95 810.62 337.573 840 356.2C881.307 349.507 905.307 366.813 912 408.12C925.86 373.98 949.86 363.84 984 377.7C1028.85 342.553 1068.85 347.403 1104 392.25C1134.57 374.817 1158.57 381.38 1176 411.94C1223.48 379.42 1263.48 386.903 1296 434.39C1316.45 406.843 1340.45 403.3 1368 423.76C1376.47 384.233 1400.47 368.707 1440 377.18C1473.78 330.96 1513.78 324.74 1560 358.52V560Z" fill="#25467D" fill-opacity="1"/>
<path d="M1488 560H0V509.22C11.8533 473.073 35.8533 460.93 72 472.79C82.72 435.51 106.72 422.23 144 432.95C187.38 396.33 227.38 399.71 264 443.09C296.033 427.123 320.033 435.156 336 467.19C360.473 411.663 400.473 396.14 456 420.62C503.493 388.113 543.493 395.603 576 443.09C610.44 429.53 634.44 439.973 648 474.42C698.807 445.226 738.807 456.033 768 506.84C785.193 476.033 809.193 469.226 840 486.42C855.707 454.126 879.707 445.833 912 461.54C967.767 437.313 1007.77 453.083 1032 508.85C1035.95 464.796 1059.95 444.743 1104 448.69C1120.45 417.143 1144.45 409.593 1176 426.04C1232.15 402.186 1272.15 418.333 1296 474.48C1314.11 444.586 1338.11 438.696 1368 456.81C1398.49 407.296 1438.49 397.783 1488 428.27V560Z" fill="#356CB1" fill-opacity="1"/>
<path d="M1488 560H0V542.23C30.2533 492.483 70.2533 482.733 120 512.98C175.66 488.64 215.66 504.296 240 559.95C273.32 545.27 297.32 554.59 312 587.91C323 550.91 347 537.913 384 548.92C390.62 507.54 414.62 490.156 456 496.77C490.087 482.856 514.087 492.943 528 527.03C562.88 513.91 586.88 524.786 600 559.66C617.847 497.506 657.847 475.356 720 493.21C747.933 473.15 771.933 477.086 792 505.02C852.24 485.26 892.24 505.5 912 565.74C939.6 545.34 963.6 548.94 984 576.54C990.253 534.793 1014.25 517.05 1056 523.31C1102.54 489.85 1142.54 496.39 1176 542.93C1223.83 510.756 1263.83 518.583 1296 566.41C1301.1 523.51 1325.1 504.61 1368 509.71C1411.51 473.216 1451.51 476.72 1488 520.22V560Z" fill="white"/>
</g>
</g>
<defs>
<clipPath id="clip0_141_543">
<rect width="1440" height="560" fill="white"/>
</clipPath>
</defs>
</svg>
