<svg width="1440" height="630" viewBox="0 0 1440 630" fill="none" xmlns="http://www.w3.org/2000/svg">
<mask id="mask0_114_32" style="mask-type:luminance" maskUnits="userSpaceOnUse" x="0" y="0" width="1440" height="630">
<path d="M1440 0L0 0L0 629.301H1440V0Z" fill="white"/>
</mask>
<g mask="url(#mask0_114_32)">
<path d="M1560 629.3H0L0 365.691C29.5867 309.039 69.5867 297.337 120 330.585C158.247 319.625 182.247 335.631 192 378.603C207.32 341.879 231.32 332.128 264 349.352C292.813 327.791 316.813 333.2 336 365.579C374.4 354.791 398.4 370.973 408 414.125C423.507 341.65 463.507 314.129 528 331.563C576.753 296.449 616.753 306.282 648 361.061C679.633 342.669 703.633 351.251 720 386.806C729.753 343.826 753.753 327.817 792 338.777C820.16 316.482 844.16 321.153 864 352.79C903.973 343.77 927.973 361.724 936 406.652C969.34 354.217 1009.34 346.737 1056 384.21C1089.85 332.345 1129.85 325.431 1176 363.466C1190 325.258 1214 314.021 1248 329.753C1277.4 308.844 1301.4 314.909 1320 347.947C1382.03 327.757 1422.03 352.513 1440 422.216C1472.28 368.59 1512.28 359.915 1560 396.19V629.3Z" fill="#182F5D" fill-opacity="0.03"/>
<path d="M1488 629.3H0L0 407.348C60.6867 385.645 100.687 408.892 120 477.088C135.573 440.649 159.573 431.179 192 448.68C247.687 421.358 287.687 438.989 312 501.575C340.007 443.147 380.007 429.67 432 461.142C451.753 429.408 475.753 424.639 504 446.837C518.46 409.146 542.46 398.426 576 414.675C635.14 391.234 675.14 412.742 696 479.201C710.34 441.376 734.34 430.52 768 446.635C795.453 387.585 835.453 373.482 888 404.325C920.407 386.802 944.407 396.253 960 432.678C980.067 401.288 1004.07 396.864 1032 419.406C1066.01 367.729 1106.01 360.997 1152 399.212C1187.27 384.903 1211.27 397.568 1224 437.206C1266.82 431.385 1290.82 452.538 1296 500.665C1326.42 444.949 1366.42 434.187 1416 468.379C1428.16 428.104 1452.16 414.799 1488 428.464V629.3Z" fill="#25467D" fill-opacity="0.02"/>
<path d="M1488 629.3H0L0 570.011C18.82 537.22 42.82 531.396 72 552.537C101.667 495.975 141.667 484.367 192 517.712C220.433 495.724 244.433 500.702 264 532.647C273.887 489.817 297.887 473.957 336 485.067C366.793 465.724 390.793 473.354 408 507.958C456.793 472.889 496.793 482.771 528 537.602C571.927 497.065 611.927 501.481 648 550.851C696.147 515.056 736.147 524.215 768 578.327C783.14 505.441 823.14 477.504 888 494.518C937.433 460.176 977.433 470.78 1008 526.331C1037.25 505.265 1061.25 511.164 1080 544.03C1129.03 509.224 1169.03 519.368 1200 574.461C1200.57 521.151 1224.57 494.814 1272 495.451C1291.62 463.558 1315.62 458.64 1344 480.696C1386.69 474.732 1410.69 495.739 1416 543.716C1432.47 508.28 1456.47 499.814 1488 518.319V629.3Z" fill="#34547D" fill-opacity="0.43"/>
<path d="M1512 629.3H0L0 645.134C20.1133 577.836 60.1133 555.489 120 578.091C154.573 527.035 194.573 520.933 240 559.785C305.193 543.146 345.193 571.457 360 644.718C365.347 596.787 389.347 575.825 432 581.833C479.447 545.251 519.447 553.623 552 606.949C562.067 564.321 586.067 548.66 624 559.965C651.94 537.423 675.94 541.85 696 573.248C739.573 532.313 779.573 536.329 816 585.294C872.72 559.134 912.72 577.923 936 641.662C938.847 590.921 962.847 567.15 1008 570.349C1042.21 518.896 1082.21 512.389 1128 550.829C1168.12 541.974 1192.12 560.089 1200 605.174C1244.07 564.801 1284.07 569.378 1320 618.906C1346.65 558.95 1386.65 543.944 1440 573.888C1457.89 540.056 1481.89 533.194 1512 553.301V629.3Z" fill="#34547D"/>
</g>
</svg>
