<svg width="1440" height="630" viewBox="0 0 1440 630" fill="none" xmlns="http://www.w3.org/2000/svg">
<mask id="mask0_114_33" style="mask-type:luminance" maskUnits="userSpaceOnUse" x="0" y="0" width="1440" height="630">
<path d="M0 629.301L1440 629.301V-6.10352e-05L0 -6.10352e-05V629.301Z" fill="white"/>
</mask>
<g mask="url(#mask0_114_33)">
<path d="M-120 9.34527e-05L1440 9.34527e-05V263.61C1410.41 320.262 1370.41 331.964 1320 298.716C1281.75 309.676 1257.75 293.67 1248 250.698C1232.68 287.422 1208.68 297.172 1176 279.949C1147.19 301.51 1123.19 296.101 1104 263.722C1065.6 274.51 1041.6 258.328 1032 215.176C1016.49 287.65 976.493 315.171 912 297.738C863.247 332.851 823.247 323.019 792 268.239C760.367 286.632 736.367 278.05 720 242.494C710.247 285.474 686.247 301.484 648 290.523C619.84 312.819 595.84 308.148 576 276.51C536.027 285.53 512.027 267.576 504 222.649C470.66 275.083 430.66 282.564 384 245.09C350.153 296.955 310.153 303.87 264 265.835C250 304.042 226 315.28 192 299.547C162.6 320.456 138.6 314.392 120 281.354C57.9667 301.544 17.9667 276.787 0 207.085C-32.28 260.71 -72.28 269.386 -120 233.111V9.34527e-05Z" fill="#182F5D" fill-opacity="0.03"/>
<path d="M-48 9.63487e-05L1440 9.63487e-05V221.952C1379.31 243.656 1339.31 220.409 1320 152.212C1304.43 188.652 1280.43 198.121 1248 180.621C1192.31 207.943 1152.31 190.311 1128 127.726C1099.99 186.153 1059.99 199.631 1008 168.158C988.247 199.893 964.247 204.661 936 182.464C921.54 220.154 897.54 230.875 864 214.625C804.86 238.067 764.86 216.558 744 150.1C729.66 187.925 705.66 198.78 672 182.666C644.547 241.715 604.547 255.818 552 224.975C519.593 242.498 495.593 233.047 480 196.623C459.933 228.013 435.933 232.437 408 209.894C373.993 261.572 333.993 268.303 288 230.088C252.733 244.397 228.733 231.733 216 192.094C173.18 197.915 149.18 176.762 144 128.636C113.58 184.351 73.58 195.113 24 160.921C11.84 201.197 -12.16 214.502 -48 200.837V9.63487e-05Z" fill="#25467D" fill-opacity="0.02"/>
<path d="M-48 6.43328e-05L1440 6.43328e-05V59.2892C1421.18 92.0802 1397.18 97.905 1368 76.7635C1338.33 133.326 1298.33 144.934 1248 111.589C1219.57 133.577 1195.57 128.598 1176 96.6539C1166.11 139.484 1142.11 155.344 1104 144.234C1073.21 163.577 1049.21 155.947 1032 121.343C983.207 156.411 943.207 146.53 912 91.6982C868.073 132.236 828.073 127.819 792 78.4491C743.853 114.244 703.853 105.086 672 50.9734C656.86 123.86 616.86 151.796 552 134.783C502.567 169.125 462.567 158.52 432 102.969C402.747 124.036 378.747 118.136 360 85.2703C310.973 120.077 270.973 109.933 240 54.8391C239.433 108.15 215.433 134.487 168 133.85C148.38 165.742 124.38 170.66 96 148.605C53.3067 154.568 29.3067 133.562 24 85.5849C7.53333 121.021 -16.4667 129.486 -48 110.982V6.43328e-05Z" fill="#34547D" fill-opacity="0.43"/>
<path d="M-72 3.98165e-05L1440 3.98165e-05V-15.8336C1419.89 51.4641 1379.89 73.8118 1320 51.2094C1285.43 102.265 1245.43 108.367 1200 69.5153C1134.81 86.1543 1094.81 57.8433 1080 -15.4178C1074.65 32.5139 1050.65 53.4756 1008 47.4673C960.553 84.0491 920.553 75.6772 888 22.3515C877.933 64.9791 853.933 80.6404 816 69.3355C788.06 91.8779 764.06 87.4504 744 56.0527C700.427 96.9873 660.427 92.9717 624 44.0061C567.28 70.167 527.28 51.3779 504 -12.3612C501.153 38.3799 477.153 62.151 432 58.952C397.787 110.405 357.787 116.911 312 78.4716C271.88 87.3267 247.88 69.2118 240 24.1269C195.927 64.4996 155.927 59.9222 120 10.3947C93.3533 70.3506 53.3533 85.3564 0 55.4122C-17.8933 89.2446 -41.8933 96.107 -72 75.9993V3.98165e-05Z" fill="#34547D"/>
</g>
</svg>
