<svg width="1512" height="163" viewBox="0 0 1512 163" fill="none" xmlns="http://www.w3.org/2000/svg">
<path d="M-6.67572e-05 0.999993L1511 0.999993V60.2415C1491.89 93.0062 1467.52 98.8262 1437.89 77.7017C1407.76 134.218 1367.14 145.817 1316.03 112.499C1287.16 134.469 1262.79 129.495 1242.92 97.5761C1232.88 140.372 1208.51 156.219 1169.81 145.118C1138.54 164.445 1114.17 156.821 1096.69 122.245C1047.15 157.285 1006.53 147.412 974.839 92.6244C930.233 133.129 889.615 128.716 852.984 79.386C804.093 115.152 763.475 106.001 731.129 51.9323C715.755 124.76 675.137 152.674 609.274 135.674C559.077 169.989 518.458 159.393 487.419 103.887C457.714 124.936 433.343 119.041 414.306 86.2017C364.522 120.98 323.904 110.844 292.452 55.7949C291.876 109.063 267.505 135.379 219.339 134.742C199.415 166.609 175.044 171.523 146.226 149.485C102.873 155.444 78.5015 134.454 73.1128 86.5161C56.3916 121.923 32.0207 130.382 -6.67572e-05 111.892V0.999993Z" fill="#34547D" fill-opacity="0.43"/>
<path d="M0 0.833641L1512 0.833641V23.1851C1491.89 90.4828 1451.89 74.6454 1392 52.043C1357.43 103.099 1317.43 109.201 1272 70.3489C1206.81 86.9879 1165.81 74.0947 1151 0.833633C1145.65 48.7654 1122.65 54.3092 1080 48.3009C1032.55 84.8827 992.553 76.5108 960 23.1851C949.933 65.8127 925.933 81.474 888 70.1691C860.06 92.7116 836.06 88.284 816 56.8864C772.427 97.8209 732.427 93.8053 696 44.8397C639.28 71.0006 600.28 88.6997 577 24.9605C574.153 75.7017 549.153 62.9846 504 59.7856C469.787 111.238 429.787 117.745 384 79.3052C343.88 88.1603 319.88 70.0454 312 24.9605C267.927 65.3332 227.927 60.7558 192 11.2283C165.353 71.1842 125.353 86.19 72 56.2458C54.1067 90.0782 30.1067 96.9406 0 76.8329V0.833641Z" fill="#34547D"/>
</svg>
