<svg width="98" height="107" viewBox="0 0 98 107" fill="none" xmlns="http://www.w3.org/2000/svg">
<path d="M19.0463 82.6872C19.568 89.8783 21.6543 96.953 24.8289 103.354C40.9077 107.446 58.0711 107.22 73.9074 102.729C77.4821 96.5312 77.4753 88.9855 77.5283 81.8896C75.058 79.9909 71.9314 79.194 68.8852 78.5277C63.7907 77.4129 58.6433 76.5357 53.4653 75.8993C47.5486 75.1726 41.5335 74.7633 35.6393 75.6529C29.7445 76.5432 23.9338 78.8189 19.0457 82.6878L19.0463 82.6872Z" fill="#FFC264"/>
<path d="M41.1208 28.1043C25.6554 31.2852 11.6935 41.1495 3.38013 54.2158C6.85581 59.6195 11.8811 64.0204 17.6014 66.5045C16.0973 72.1191 15.2901 77.9191 14.8008 83.5797C17.9897 88.7669 23.3348 92.3958 29.0949 94.4033C34.8545 96.4115 41.0354 96.9204 47.1372 96.9105C53.0813 96.9011 59.0702 96.4072 64.7774 94.7486C70.484 93.0913 75.9207 90.2171 80.0228 85.9736C80.7933 79.9192 80.6318 73.7484 79.4057 67.8035C84.9945 64.2599 90.16 60.0525 94.8568 55.2684C91.5045 50.0072 87.8151 44.9133 83.314 40.5871C78.8136 36.2621 73.4523 32.7129 67.4602 30.9374C62.9286 29.5942 58.1627 29.2906 53.4447 28.9958C49.5701 28.7531 45.6955 28.5105 41.1208 28.103V28.1043Z" fill="#C6332D"/>
<path d="M39.2914 24.5703C38.9398 26.7321 38.7547 28.9207 38.7129 30.7012C39.5283 33.8647 41.9056 36.6064 44.9581 37.7896C48.0111 38.9729 51.6638 38.5331 54.2974 36.5908C56.3189 35.1009 57.6603 32.8799 58.7723 30.4032C58.7231 28.0971 58.6738 25.7915 58.546 23.4106C57.6671 22.0152 55.9056 21.4827 54.2744 21.2152C51.2637 20.72 48.1651 20.7604 45.1681 21.334C43.1205 21.726 41.0149 22.4314 39.2908 24.5703H39.2914Z" fill="#F49F83"/>
<path d="M16.7424 65.8895C15.8031 67.2196 15.2028 68.3295 14.2641 69.6596C16.4358 74.1681 18.3513 78.6877 19.8647 83.3368C21.7621 84.0616 23.3803 85.062 24.7098 86.3591C25.0084 86.6502 25.297 86.9625 25.4759 87.3402C25.6542 87.7172 25.7097 88.1701 25.5364 88.5495C25.3512 88.9552 24.933 89.2158 24.4985 89.3222C24.0641 89.4286 23.6103 89.4025 23.164 89.3763C23.6477 90.1534 24.0211 90.6691 24.2648 91.2495C24.5085 91.83 24.6145 92.49 24.4331 93.0929C24.2517 93.6951 23.7418 94.2201 23.116 94.3029C22.8779 95.055 22.272 95.5677 21.5683 95.7829C20.8651 95.9982 20.0754 95.9142 19.434 95.5558C17.607 95.9646 15.7121 94.706 14.5963 93.0699C13.4812 91.4337 12.9931 89.4634 12.525 87.5405C9.76303 85.6791 7.09642 83.3076 4.8861 80.5361C2.67577 77.7651 0.925462 74.5544 0.298393 71.0693C-0.750047 65.2388 1.05698 59.8301 4.26775 54.7095C7.48476 59.0686 11.6579 62.3746 16.7418 65.8895H16.7424Z" fill="#F49F83"/>
<path d="M19.4259 95.794C19.3573 95.794 19.2881 95.7673 19.2358 95.7144C18.3463 94.8154 17.579 93.8014 16.955 92.7027C16.8821 92.5746 16.9276 92.4122 17.056 92.3394C17.1844 92.2666 17.3471 92.312 17.42 92.4402C18.0209 93.4984 18.7595 94.4745 19.6166 95.3405C19.7195 95.445 19.7189 95.6136 19.6141 95.7169C19.5618 95.7679 19.4938 95.7934 19.4265 95.7934L19.4259 95.794Z" fill="#662520"/>
<path d="M23.0518 94.611C22.9876 94.611 22.9234 94.5886 22.8716 94.5413C21.7403 93.5117 20.6744 92.3907 19.7045 91.208C19.611 91.0942 19.6278 90.9262 19.7419 90.8335C19.856 90.7408 20.0243 90.757 20.1171 90.8709C21.0708 92.0336 22.1193 93.136 23.2313 94.1482C23.3404 94.2471 23.3479 94.4157 23.2488 94.5239C23.1964 94.5818 23.1241 94.6104 23.0518 94.6104V94.611Z" fill="#662520"/>
<path d="M23.1603 89.6921C23.0879 89.6921 23.0156 89.6635 22.9633 89.6057C22.4983 89.098 21.9772 88.6395 21.4137 88.2432C21.2934 88.1586 21.2647 87.9925 21.3495 87.8718C21.4349 87.7518 21.6013 87.7231 21.7222 87.8084C22.3163 88.2271 22.8667 88.7111 23.3578 89.2467C23.457 89.355 23.4495 89.5236 23.3404 89.6225C23.2899 89.6691 23.2251 89.6921 23.1609 89.6921H23.1603Z" fill="#662520"/>
<path d="M12.8871 69.3106C12.8254 69.3106 12.7631 69.2895 12.7126 69.2459C11.4984 68.1995 9.88145 67.5867 8.277 67.5643C8.12927 67.5625 8.01208 67.4412 8.01395 67.2943C8.01582 67.1469 8.13862 67.0287 8.2851 67.0318C10.013 67.0567 11.7539 67.7167 13.0617 68.8428C13.1732 68.9386 13.1857 69.1072 13.0897 69.2185C13.0367 69.2795 12.9626 69.3112 12.8871 69.3112V69.3106Z" fill="#662520"/>
<path d="M80.8712 66.2878C81.8105 67.6172 82.7499 68.948 83.6886 70.278C81.517 74.7871 79.6015 79.3062 78.088 83.9553C76.1906 84.6807 74.5718 85.681 73.2429 86.9775C72.9443 87.2687 72.6551 87.5816 72.4768 87.9586C72.2979 88.3356 72.2424 88.7885 72.4157 89.168C72.6015 89.5736 73.0197 89.8343 73.4542 89.9407C73.8886 90.0477 74.3424 90.0216 74.7887 89.9948C74.3044 90.7718 73.9317 91.2882 73.6879 91.868C73.4442 92.4484 73.3376 93.1085 73.519 93.7113C73.701 94.3142 74.2109 94.8392 74.8367 94.9214C75.0748 95.6735 75.6807 96.1861 76.3838 96.4014C77.087 96.6172 77.8767 96.5333 78.5187 96.1743C80.3457 96.583 82.2406 95.3251 83.3558 93.6883C84.4715 92.0521 84.9596 90.0825 85.4277 88.1596C88.1891 86.2982 90.8557 83.9261 93.0666 81.1551C95.2769 78.3836 97.0273 75.1735 97.6543 71.6878C98.7028 65.8573 97.3221 60.4592 94.1119 55.3379C90.2772 59.4034 85.9563 62.7716 80.8724 66.2872L80.8712 66.2878Z" fill="#F49F83"/>
<path d="M78.5262 96.4126C78.4583 96.4126 78.3909 96.3871 78.3392 96.3361C78.2345 96.2328 78.2326 96.0642 78.3367 95.9597C79.1932 95.0937 79.9318 94.1176 80.5327 93.0594C80.6056 92.9319 80.7683 92.8865 80.8967 92.9586C81.0251 93.0314 81.07 93.1938 80.9977 93.322C80.3744 94.4206 79.6071 95.4347 78.7169 96.3336C78.6646 96.3865 78.596 96.4133 78.5268 96.4133L78.5262 96.4126Z" fill="#662520"/>
<path d="M74.9009 95.2293C74.8286 95.2293 74.7557 95.2007 74.7034 95.1428C74.6042 95.0346 74.6117 94.866 74.7208 94.7671C75.8334 93.7543 76.8813 92.6519 77.835 91.4898C77.9291 91.3759 78.0968 91.3591 78.2108 91.4524C78.3249 91.5451 78.3417 91.7131 78.2482 91.827C77.2783 93.0096 76.2124 94.1307 75.0805 95.1603C75.03 95.2069 74.9652 95.2299 74.9009 95.2299V95.2293Z" fill="#662520"/>
<path d="M74.7925 90.3114C74.7283 90.3114 74.6641 90.2878 74.6123 90.2418C74.5039 90.1422 74.4958 89.9736 74.5955 89.8654C75.0861 89.3291 75.6365 88.8451 76.2311 88.427C76.3514 88.3424 76.5178 88.371 76.6032 88.4911C76.688 88.6112 76.6593 88.7767 76.539 88.8619C75.9762 89.2582 75.4551 89.7167 74.9901 90.2243C74.9377 90.2822 74.8654 90.3114 74.7931 90.3114H74.7925Z" fill="#662520"/>
<path d="M85.0656 69.9294C84.9908 69.9294 84.916 69.8977 84.863 69.8367C84.7664 69.7253 84.7788 69.5574 84.8904 69.4615C86.1988 68.3349 87.9397 67.6748 89.6676 67.6499C89.8153 67.6475 89.9369 67.765 89.9388 67.9125C89.9406 68.0599 89.8228 68.18 89.6757 68.1825C88.0706 68.2055 86.4544 68.8183 85.2395 69.8641C85.189 69.9076 85.1273 69.9288 85.0656 69.9288V69.9294Z" fill="#662520"/>
<path d="M79.5348 67.4752C79.4294 67.4752 79.3291 67.4124 79.2867 67.3085C77.3656 62.5798 74.9458 58.0346 72.0947 53.7986C72.0124 53.6767 72.0455 53.5112 72.1676 53.4297C72.2898 53.3476 72.4556 53.3799 72.5379 53.5018C75.4096 57.7683 77.8462 62.3465 79.7816 67.1088C79.8371 67.245 79.771 67.4 79.6345 67.4553C79.6015 67.4684 79.5678 67.4746 79.5348 67.4746V67.4752Z" fill="#662520"/>
<path d="M75.3597 58.4172C75.3522 58.4172 75.3441 58.4172 75.3366 58.4166C75.1895 58.4041 75.0805 58.2753 75.0935 58.1285L75.6601 51.5453C75.6726 51.3985 75.8016 51.2908 75.9487 51.3026C76.0959 51.3151 76.2049 51.4439 76.1925 51.5907L75.6252 58.1739C75.6134 58.3127 75.4968 58.4172 75.3597 58.4172Z" fill="#662520"/>
<path d="M33.1703 58.7118C32.1006 58.7118 31.0385 58.601 30.015 58.3802C29.871 58.3491 29.7794 58.2072 29.8105 58.0635C29.8417 57.9198 29.9838 57.8283 30.1284 57.8595C32.0346 58.2719 34.0816 58.2862 36.0482 57.9005C38.0148 57.5154 39.9047 56.7303 41.5129 55.6298C41.6345 55.5464 41.8009 55.5775 41.8844 55.6988C41.9679 55.8195 41.9368 55.9856 41.8152 56.069C40.1478 57.21 38.1887 58.0243 36.151 58.4231C35.168 58.6153 34.1657 58.7111 33.1703 58.7111V58.7118Z" fill="#662520"/>
<path d="M48.0778 43.1161C47.414 43.1161 46.7564 43.0551 46.1162 42.9307C43.6927 42.4598 41.3671 41.0818 39.5688 39.0499C37.9687 37.2421 36.7862 34.9682 36.055 32.2906C36.0164 32.1488 36.0999 32.0026 36.2427 31.964C36.3848 31.9254 36.5313 32.0088 36.5699 32.1506C37.2799 34.7486 38.4224 36.9515 39.9689 38.6978C41.6893 40.6419 43.909 41.9602 46.2178 42.4087C49.206 42.9892 52.5889 42.1132 55.2661 40.064C57.6584 38.2343 59.5377 35.5182 60.7027 32.2097C60.752 32.071 60.9041 31.9982 61.0431 32.0468C61.1827 32.0959 61.255 32.2477 61.207 32.3858C60.0071 35.7919 58.066 38.5933 55.5914 40.4864C53.3655 42.1898 50.6671 43.1167 48.0772 43.1167L48.0778 43.1161Z" fill="#662520"/>
<path d="M63.5208 62.0406C63.4635 62.0406 63.4067 62.0225 63.3594 61.9865C61.4283 60.527 59.4193 59.1067 57.4764 57.7337C57.4028 57.6814 57.3604 57.5956 57.3648 57.506C57.4876 54.457 57.4951 51.2605 57.5026 48.1692C57.5026 48.0386 57.5986 47.9272 57.7288 47.9073C61.9232 47.2597 65.6788 47.185 69.2099 47.6784C69.339 47.6964 69.4362 47.8053 69.4393 47.9359C69.5085 50.9159 69.4325 53.9269 69.3589 56.8384C69.3564 56.9069 69.3284 56.9759 69.2791 57.0245C67.2944 58.9736 65.4643 60.596 63.6854 61.984C63.6367 62.0213 63.5788 62.0406 63.5208 62.0406ZM57.904 57.3828C59.7578 58.6936 61.6695 60.0467 63.5177 61.4378C65.2069 60.1089 66.9472 58.5636 68.8278 56.7202C68.8983 53.9201 68.9706 51.0322 68.9107 48.1748C65.5603 47.7313 61.998 47.8047 58.0355 48.3988C58.028 51.375 58.0181 54.4433 57.9034 57.3828H57.904Z" fill="#662520"/>
<path d="M47.1734 106.488C47.0468 106.488 46.9346 106.398 46.9109 106.269C46.4684 103.845 46.1511 101.37 45.9666 98.9116C45.9554 98.7654 46.0657 98.6373 46.2128 98.6267C46.3593 98.6161 46.4883 98.7262 46.4989 98.8724C46.6816 101.312 46.997 103.768 47.4364 106.174C47.4626 106.319 47.366 106.457 47.2214 106.484C47.2052 106.487 47.1883 106.488 47.1734 106.488V106.488Z" fill="#662520"/>
<path d="M50.118 106.396C50.1117 106.396 50.1055 106.396 50.0999 106.395C49.9528 106.386 49.8418 106.259 49.8512 106.112L50.3399 98.8224C50.3499 98.6762 50.4783 98.5654 50.6241 98.5748C50.7712 98.5841 50.8822 98.711 50.8728 98.8578L50.3841 106.148C50.3748 106.288 50.257 106.396 50.118 106.396Z" fill="#662520"/>
<path d="M22.6204 98.3258C22.5095 98.3258 22.4054 98.2561 22.3674 98.1454C22.32 98.006 22.3948 97.8548 22.5344 97.8076C23.9855 97.3155 25.2334 96.1925 25.873 94.8033C25.9347 94.6696 26.093 94.6111 26.227 94.6721C26.3604 94.7337 26.4196 94.8911 26.3586 95.0248C25.6586 96.5447 24.2941 97.7733 22.7065 98.3115C22.6778 98.3208 22.6491 98.3252 22.6204 98.3252V98.3258Z" fill="#662520"/>
<path d="M76.0017 98.1487C75.9837 98.1487 75.9656 98.1468 75.9469 98.1431C74.9733 97.939 74.0046 97.3711 73.1463 96.5001C72.392 95.7343 71.7999 94.8341 71.227 93.9631C71.146 93.8405 71.1803 93.6751 71.3037 93.5942C71.4271 93.5139 71.5923 93.5481 71.6733 93.6707C72.2319 94.5199 72.8097 95.3977 73.5278 96.1262C74.3113 96.9219 75.1858 97.4395 76.0566 97.6211C76.2006 97.6516 76.2935 97.7928 76.2629 97.9366C76.2361 98.0616 76.1252 98.1481 76.0017 98.1481V98.1487Z" fill="#662520"/>
<path d="M17.4599 67.0484C17.4356 67.0484 17.4106 67.0447 17.3863 67.0378C17.2448 66.998 17.1626 66.85 17.2031 66.7087C18.5245 62.0889 20.9088 57.7428 24.0971 54.1407C24.1943 54.0306 24.3633 54.02 24.4736 54.1177C24.5839 54.2148 24.5945 54.3833 24.4967 54.4935C21.3607 58.0358 19.0163 62.311 17.7161 66.8549C17.6824 66.9719 17.5758 67.0484 17.4593 67.0484H17.4599Z" fill="#662520"/>
<path d="M22.0532 57.3195C21.9111 57.3195 21.7933 57.2088 21.7864 57.0663C21.7098 55.4893 21.7802 53.896 21.9952 52.3308C22.0152 52.1852 22.1498 52.0832 22.2963 52.1037C22.4422 52.1236 22.5444 52.258 22.5244 52.4036C22.3138 53.9358 22.2452 55.4961 22.32 57.0414C22.3275 57.1876 22.2134 57.3127 22.0663 57.3202C22.0619 57.3202 22.0576 57.3202 22.0532 57.3202V57.3195Z" fill="#662520"/>
<path d="M38.4137 17.5261C37.3422 15.0457 36.881 12.2237 37.5984 9.61957C38.3171 7.016 40.3529 4.69924 42.6904 4.13249C42.9061 3.03259 43.4184 1.97685 44.2281 1.19983C45.0385 0.422804 46.1573 -0.0531159 47.28 0.00474113C48.402 0.062598 49.5021 0.688448 49.8312 1.81946C50.4571 1.20418 51.5223 1.18614 52.2703 1.64589C53.0183 2.10501 53.4678 2.9486 53.4721 3.84321C55.2343 3.83014 56.8817 4.8753 57.952 6.27071C59.0222 7.66612 59.5907 9.37818 59.9934 11.0884C60.239 12.1311 60.4303 13.1974 60.3805 14.2674C60.3306 15.3368 60.0227 16.4187 59.3557 17.2585C58.6937 18.0922 57.7313 18.6309 56.7639 19.0807C53.9864 20.3722 50.9258 21.107 47.8615 21.023C44.7979 20.9384 41.7348 20.0127 38.4137 17.5267V17.5261Z" fill="#662520"/>
<path d="M58.9917 16.2686C59.5733 15.9046 60.1978 15.5282 60.8848 15.537C61.7923 15.5488 62.5927 16.291 62.8264 17.1663C63.0602 18.0416 62.7953 18.9966 62.2816 19.7437C61.7668 20.4903 61.025 21.0527 60.2477 21.5211C59.8974 23.7663 59.0858 25.8262 57.9601 27.6994C57.0806 29.1626 55.9742 30.5443 54.4963 31.4028C53.0109 32.2663 51.2468 32.5432 49.5283 32.5326C46.5127 32.5127 43.4565 31.61 41.114 29.7163C38.7715 27.8232 37.2188 24.8911 37.1721 21.9292C36.214 21.4558 35.4573 20.5624 35.2235 19.5222C34.9904 18.4821 35.3139 17.3181 36.1024 16.5983C36.8909 15.8785 38.1295 15.6676 39.0944 16.3283C39.2266 13.3546 40.7344 10.4698 43.1367 8.40625C45.42 9.4738 48.0766 9.72389 50.52 9.10053C51.8278 8.76708 53.2265 8.19535 54.4694 8.72229C55.3465 9.09369 55.9206 9.93666 56.3787 10.7703C57.2919 12.4301 57.9489 14.2286 58.9917 16.2692V16.2686Z" fill="#F49F83"/>
<path d="M49.0502 22.5954C48.3184 22.5954 47.6228 22.0622 47.4452 21.3505C47.3155 20.8298 47.4551 20.301 47.5779 19.8351L47.6004 19.7505C47.9476 18.4222 48.1296 17.0523 48.1402 15.6799C48.1408 15.5325 48.2605 15.4143 48.4088 15.4155C48.5566 15.4168 48.675 15.5368 48.6737 15.6837C48.6631 17.1002 48.4761 18.5137 48.1165 19.8842L48.094 19.9701C47.9825 20.3943 47.8665 20.8336 47.9638 21.2224C48.0853 21.7114 48.5964 22.0877 49.1007 22.0616C49.2478 22.0548 49.3731 22.1661 49.3812 22.3136C49.3887 22.4604 49.2759 22.5854 49.1281 22.5935C49.102 22.5948 49.0764 22.5954 49.0502 22.5954Z" fill="#662520"/>
<path d="M49.6256 32.7982C49.5925 32.7982 49.5595 32.7982 49.5264 32.7982C46.2608 32.7771 43.2127 31.7562 40.9457 29.9228C40.831 29.8307 40.8135 29.6627 40.9064 29.5483C40.9993 29.4344 41.1676 29.417 41.2823 29.5091C43.4558 31.2659 46.3849 32.2452 49.5302 32.2663C51.465 32.2781 53.0925 31.9111 54.3622 31.1733C55.3371 30.6065 56.2141 29.7698 57.0432 28.6139C57.1292 28.4944 57.2956 28.4664 57.4153 28.5523C57.5356 28.6381 57.563 28.8042 57.477 28.9237C56.6037 30.1418 55.6718 31.0283 54.6303 31.633C53.2988 32.4063 51.6158 32.7982 49.6256 32.7982Z" fill="#662520"/>
<path d="M46.4541 14.1515C46.5457 14.8184 45.4087 14.926 44.0137 15.117C42.6187 15.3074 41.4942 15.5089 41.4026 14.842C41.311 14.1751 42.3401 13.2842 43.7351 13.0933C45.1301 12.9029 46.3624 13.4846 46.4541 14.1515Z" fill="#662520"/>
<path d="M45.7678 18.4715C45.7684 18.5654 45.7615 18.6588 45.7472 18.7508C45.7329 18.8429 45.7117 18.9325 45.683 19.0196C45.6537 19.1067 45.6188 19.1888 45.5764 19.2672C45.534 19.3456 45.4867 19.4184 45.4324 19.4849C45.3788 19.5521 45.3202 19.6118 45.2567 19.6641C45.1931 19.717 45.1264 19.7612 45.0553 19.7979C44.9849 19.8339 44.9119 19.8619 44.8371 19.8806C44.7617 19.8993 44.6857 19.9092 44.609 19.9092C44.5323 19.9098 44.4563 19.9011 44.3809 19.8837C44.3061 19.8657 44.2325 19.8389 44.1615 19.8035C44.0904 19.768 44.0225 19.7245 43.9589 19.6728C43.8947 19.6212 43.8348 19.5621 43.7806 19.4961C43.7258 19.4302 43.6765 19.358 43.6335 19.2803C43.5905 19.2025 43.5537 19.1204 43.5238 19.0339C43.4939 18.9474 43.4714 18.8578 43.4559 18.7658C43.4403 18.6737 43.4322 18.581 43.4315 18.4871C43.4309 18.3931 43.4378 18.2998 43.4521 18.2077C43.4664 18.1157 43.4883 18.0261 43.5169 17.939C43.5456 17.8519 43.5811 17.7698 43.6229 17.6914C43.6653 17.613 43.7133 17.5402 43.7669 17.4736C43.8205 17.4064 43.8791 17.3467 43.9427 17.2945C44.0063 17.2416 44.0729 17.1974 44.144 17.1607C44.2144 17.1246 44.2874 17.0966 44.3628 17.078C44.4376 17.0593 44.5136 17.0493 44.5903 17.0493C44.667 17.0487 44.743 17.0574 44.8184 17.0749C44.8939 17.0929 44.9668 17.1196 45.0379 17.1551C45.1089 17.1906 45.1769 17.2341 45.2411 17.2858C45.3053 17.3374 45.3645 17.3965 45.4193 17.4624C45.4736 17.5284 45.5228 17.6005 45.5658 17.6783C45.6088 17.7561 45.6456 17.8382 45.6755 17.9247C45.7054 18.0111 45.7279 18.1007 45.7435 18.1928C45.7591 18.2849 45.7672 18.3776 45.7678 18.4715Z" fill="#662520"/>
<path d="M51.1241 14.1874C51.0424 14.8555 52.1818 14.9457 53.5793 15.1143C54.9775 15.2835 56.1051 15.4677 56.1861 14.7995C56.2678 14.1307 55.2243 13.256 53.8262 13.0868C52.4281 12.9182 51.2057 13.5186 51.1241 14.1874Z" fill="#662520"/>
<path d="M53.3662 17.0513C53.4428 17.0519 53.5189 17.0619 53.5943 17.0805C53.6691 17.0992 53.742 17.1266 53.8125 17.1633C53.8835 17.2 53.9502 17.2442 54.0138 17.297C54.0774 17.3493 54.136 17.409 54.1896 17.4756C54.2438 17.5428 54.2912 17.6149 54.3336 17.6933C54.3759 17.7717 54.4109 17.8545 54.4401 17.9416C54.4688 18.0286 54.49 18.1182 54.5044 18.2103C54.5187 18.3024 54.5255 18.3957 54.5249 18.4896C54.5243 18.5836 54.5162 18.6763 54.5006 18.7683C54.485 18.8604 54.4626 18.9494 54.4327 19.0359C54.4027 19.123 54.366 19.2051 54.323 19.2828C54.28 19.3606 54.2307 19.4321 54.1765 19.4987C54.1216 19.5647 54.0624 19.6231 53.9982 19.6754C53.934 19.727 53.8661 19.7706 53.795 19.806C53.7239 19.8415 53.651 19.8682 53.5756 19.8857C53.5002 19.9037 53.4241 19.9124 53.3475 19.9118C53.2708 19.9112 53.1947 19.9018 53.1199 19.8826C53.0445 19.8639 52.9716 19.8365 52.9011 19.7998C52.8307 19.7637 52.7634 19.7189 52.6998 19.6667C52.6362 19.6138 52.5776 19.5541 52.524 19.4875C52.4704 19.4209 52.4224 19.3482 52.38 19.2698C52.3383 19.1914 52.3028 19.1086 52.2741 19.0215C52.2454 18.9351 52.2236 18.8455 52.2093 18.7528C52.1949 18.6607 52.1881 18.568 52.1887 18.4741C52.1893 18.3801 52.1974 18.2868 52.213 18.1948C52.2286 18.1033 52.251 18.0137 52.2809 17.9272C52.3109 17.8408 52.3476 17.7586 52.3906 17.6809C52.4337 17.6031 52.4829 17.531 52.5377 17.465C52.592 17.3991 52.6518 17.34 52.716 17.2883C52.7796 17.2367 52.8475 17.1931 52.9186 17.1577C52.9897 17.1216 53.0632 17.0955 53.138 17.0774C53.2134 17.0594 53.2895 17.0507 53.3662 17.0513Z" fill="#662520"/>
<path d="M37.1583 19.5933C37.0424 19.5933 36.9358 19.518 36.9022 19.4017C36.7931 19.0253 36.8124 18.6185 36.957 18.2545C37.0343 18.0586 37.1478 17.8788 37.288 17.7226C37.1671 17.7108 37.0449 17.717 36.9252 17.7413C36.7812 17.7711 36.6397 17.6772 36.6111 17.5335C36.5818 17.3892 36.6746 17.2492 36.8193 17.2199C37.2051 17.1416 37.6109 17.1963 37.9618 17.3736C38.0491 17.4178 38.1052 17.5049 38.1083 17.6026C38.1114 17.6996 38.0609 17.7904 37.9774 17.8402C37.7405 17.9796 37.5548 18.1961 37.4532 18.4511C37.3522 18.7056 37.3385 18.9905 37.4152 19.253C37.4563 19.3949 37.3746 19.5423 37.2331 19.5827C37.2082 19.5902 37.1833 19.5933 37.159 19.5933H37.1583Z" fill="#662520"/>
<path d="M60.828 18.9494C60.7065 18.9494 60.5962 18.8654 60.5681 18.7416C60.4653 18.2875 60.2246 17.8582 59.8918 17.5329C59.8282 17.4707 59.8002 17.3811 59.8164 17.2933C59.8332 17.2063 59.8918 17.1328 59.9734 17.098C60.2596 16.9748 60.5756 16.9145 60.8885 16.9232C61.0356 16.9275 61.1522 17.0501 61.1478 17.1969C61.1434 17.3437 61.0225 17.4588 60.8735 17.4551C60.7663 17.4526 60.6585 17.4601 60.5525 17.4787C60.8087 17.8172 60.9951 18.2122 61.0886 18.6241C61.121 18.7671 61.0306 18.9102 60.8866 18.9426C60.8667 18.9469 60.8474 18.9494 60.8274 18.9494H60.828Z" fill="#662520"/>
<path d="M48.1158 26.2434C47.2276 26.2434 46.3475 25.8906 45.7154 25.2579C45.6119 25.154 45.6119 24.9854 45.716 24.8816C45.8201 24.7777 45.989 24.7777 46.0938 24.8822C46.7389 25.5279 47.7369 25.834 48.6351 25.6611C48.7797 25.6331 48.9199 25.7283 48.9474 25.872C48.976 26.0163 48.8807 26.1563 48.7361 26.1836C48.531 26.2235 48.3228 26.2427 48.1152 26.2427L48.1158 26.2434Z" fill="#662520"/>
</svg>
