<svg width="134" height="134" viewBox="0 0 134 134" fill="none" xmlns="http://www.w3.org/2000/svg">
<path d="M40.9483 94.6606C39.8219 94.6606 38.5896 94.4609 37.2752 94.0654C36.0881 93.7081 34.2128 93.0011 32.0208 91.6589C28.643 89.5916 25.958 86.3289 24.2552 82.2273C22.8781 78.9045 22.1879 75.0918 22.3617 71.7638C22.4819 69.4535 23.0422 66.9578 24.0251 64.3464C24.8019 62.2844 25.6025 60.8123 25.8455 60.4194C26.0155 60.146 26.1615 59.9205 26.2565 59.7764C27.0358 58.5957 27.9115 57.4914 28.884 56.4639L29.6007 57.1405C28.6669 58.1266 27.8255 59.1857 27.0766 60.3192C26.9777 60.4698 26.8433 60.6759 26.6811 60.937C26.042 61.9709 23.6031 66.8473 23.3433 71.8148C23.0157 78.0592 25.7544 86.6694 32.5332 90.8195C33.8851 91.6466 37.5498 93.6745 40.9457 93.6751C42.3493 93.6751 43.707 93.3287 44.8366 92.4085C48.1078 89.7448 47.2502 84.1505 47.1423 83.5191L48.1103 83.3518C48.2292 84.0387 49.1624 90.1552 45.4576 93.1723C44.3571 94.068 42.9994 94.5643 41.4284 94.649C41.2708 94.6567 41.1105 94.6606 40.9483 94.6606Z" fill="#3A2017"/>
<path d="M104.954 79.8992L108.383 62.4229L106.399 62.0332L102.994 79.3919L104.954 79.8992Z" fill="#3A2017"/>
<path d="M85.8787 70.8105H87.9V98.9101H85.8787V70.8105Z" fill="#3A2017"/>
<mask id="mask0_219_275" style="mask-type:luminance" maskUnits="userSpaceOnUse" x="82" y="97" width="8" height="5">
<path d="M82.2197 97.605H89.4987V101.888H82.2197V97.605Z" fill="white"/>
</mask>
<g mask="url(#mask0_219_275)">
<path d="M89.1381 101.102C88.9785 101.346 88.669 101.652 84.3916 101.831C83.2388 101.88 82.6901 101.882 82.4252 101.51C82.0484 100.979 82.4737 100.006 82.862 99.4662C84.1422 97.6994 87.593 97.0526 88.8583 98.5744C89.416 99.2413 89.6027 100.389 89.1381 101.102Z" fill="#3A2017"/>
</g>
<path d="M68.1121 70.8105H70.1328V98.9101H68.1121V70.8105Z" fill="#3A2017"/>
<mask id="mask1_219_275" style="mask-type:luminance" maskUnits="userSpaceOnUse" x="64" y="97" width="8" height="5">
<path d="M64.3531 97.605H71.7975V101.888H64.3531V97.605Z" fill="white"/>
</mask>
<g mask="url(#mask1_219_275)">
<path d="M71.371 101.102C71.2114 101.346 70.9025 101.652 66.6252 101.831C65.4717 101.88 64.923 101.882 64.6587 101.51C64.2813 100.979 64.7066 100.006 65.0982 99.4662C66.3777 97.6994 69.8291 97.0526 71.0944 98.5744C71.6495 99.2413 71.8363 100.389 71.371 101.102Z" fill="#3A2017"/>
</g>
<path d="M108.442 63.0341C107.914 64.0855 107.327 65.1027 106.681 66.0862C106.044 67.0672 105.355 68.0107 104.614 68.9154C102.952 70.9781 101.056 72.8625 99.0305 74.5704C95.2068 77.7938 90.925 80.4226 86.5455 82.8285C83.8023 84.3316 81.0152 85.7513 78.1835 87.0883C78.1111 87.056 78.0361 87.0192 77.965 86.9862C75.1611 85.6867 72.3979 84.3012 69.676 82.8298C65.2714 80.4446 60.9688 77.8261 57.1381 74.606C53.3073 71.3859 49.9424 67.5305 47.7052 63.0542C45.4686 58.5772 44.3901 53.4391 45.1378 48.4852C45.8854 43.5312 48.5298 38.8029 52.6526 35.9653C52.9422 35.7656 53.2375 35.5756 53.5393 35.3947C53.841 35.2144 54.148 35.0438 54.4608 34.8829C54.7735 34.7226 55.0908 34.5721 55.4133 34.4318C55.7358 34.2922 56.0627 34.1624 56.3936 34.0434C56.7238 33.9245 57.0586 33.8166 57.3959 33.719C57.7339 33.6221 58.0744 33.5355 58.4176 33.4606C58.7614 33.3856 59.1064 33.3216 59.4541 33.2686C59.8018 33.2156 60.1501 33.1743 60.5003 33.1439C60.8506 33.1135 61.2015 33.0948 61.553 33.087C61.9039 33.0799 62.2555 33.0838 62.6064 33.0987C62.9579 33.1142 63.3082 33.1407 63.6571 33.1788C64.0067 33.2163 64.3544 33.2654 64.7008 33.3261C65.0471 33.3862 65.3909 33.458 65.7328 33.5407C66.074 33.6234 66.4126 33.7171 66.748 33.8218C67.084 33.9265 67.4155 34.0422 67.7438 34.1682C68.0721 34.2942 68.3952 34.4312 68.7144 34.5779C69.0337 34.7252 69.3484 34.8822 69.6573 35.0496C69.9661 35.2176 70.2699 35.3947 70.5671 35.5814C70.865 35.7689 71.1565 35.9653 71.4415 36.1714C71.7264 36.3776 72.0043 36.5921 72.2751 36.8164C72.5465 37.0406 72.8095 37.2726 73.0661 37.5136C73.322 37.7553 73.5701 38.0041 73.8099 38.2613C74.0496 38.5185 74.281 38.7828 74.5039 39.0549C74.7268 39.3269 74.9407 39.6061 75.1449 39.8924C75.3498 40.178 75.5456 40.4707 75.7311 40.7693C75.9172 41.0678 76.093 41.3722 76.2597 41.6818C76.4258 41.9919 76.5815 42.3073 76.7275 42.6272C76.8736 42.9471 77.0086 43.2721 77.134 43.601C77.2587 43.93 77.3731 44.2621 77.4765 44.5988C77.5799 44.9348 77.6723 45.2741 77.7537 45.6166C77.8352 45.9584 77.9056 46.3035 77.9644 46.6499C78.0239 46.9969 78.0717 47.3452 78.1085 47.6955C78.1331 47.4551 78.1628 47.2153 78.1977 46.9756C78.2326 46.7365 78.2726 46.4987 78.3185 46.2615C78.3638 46.0237 78.4148 45.7878 78.471 45.5526C78.5266 45.3174 78.588 45.0841 78.6546 44.8515C78.7211 44.6195 78.7929 44.3888 78.8691 44.1594C78.946 43.9306 79.0281 43.7031 79.1147 43.4776C79.2019 43.2521 79.2937 43.0285 79.3906 42.8075C79.4869 42.5858 79.589 42.3667 79.6956 42.1496C79.8022 41.9331 79.9134 41.7186 80.0297 41.5066C80.1454 41.2947 80.2662 41.0859 80.3916 40.8792C80.517 40.673 80.6469 40.4694 80.7819 40.2685C80.9163 40.0681 81.0553 39.8704 81.1981 39.6759C81.3415 39.4814 81.4889 39.2901 81.6407 39.102C81.7926 38.914 81.9483 38.7298 82.1086 38.5489C82.2689 38.3679 82.4324 38.1909 82.6004 38.017C82.7684 37.8432 82.9403 37.6739 83.1154 37.5078C83.2912 37.3417 83.4702 37.1795 83.6524 37.0219C83.8353 36.8635 84.0214 36.7097 84.2108 36.5605C84.4007 36.4105 84.5933 36.2651 84.7891 36.1243C84.9849 35.9827 85.184 35.8464 85.3862 35.7139C85.5885 35.5821 85.7933 35.4541 86.0008 35.3314C86.2089 35.2079 86.4189 35.0897 86.6321 34.9759C86.8454 34.8629 87.0606 34.7536 87.2784 34.6496C87.4961 34.5456 87.7165 34.4467 87.9388 34.3523C88.1611 34.258 88.3853 34.1688 88.6115 34.0848C88.8377 34.0001 89.0658 33.9213 89.2952 33.847C89.5253 33.7733 89.7566 33.7042 89.9893 33.6402C90.2225 33.5769 90.4565 33.5181 90.6917 33.4651C90.9276 33.4114 91.1641 33.3636 91.4012 33.321C91.639 33.2783 91.8775 33.2408 92.1166 33.2085C92.3557 33.1769 92.5955 33.1497 92.8365 33.1284C93.0769 33.1071 93.3173 33.0909 93.5583 33.0806C93.6501 33.0741 93.7425 33.0702 93.8343 33.067C94.012 33.0638 94.1864 33.0605 94.3635 33.0605C94.728 33.0638 95.0899 33.0741 95.4511 33.1C96.2065 33.1549 96.9548 33.2622 97.6954 33.4224C98.0663 33.5013 98.4347 33.5969 98.7985 33.7022C99.4409 33.8884 100.07 34.1119 100.685 34.373C101.699 34.806 102.659 35.3365 103.564 35.9653C107.671 38.8138 110.303 43.5409 111.036 48.489C111.768 53.4378 110.682 58.5604 108.442 63.0341Z" fill="#EC2027"/>
<path d="M111.035 48.4883C110.828 47.0847 110.474 45.7193 109.971 44.3926C109.469 43.0659 108.83 41.8084 108.055 40.6206C108.511 41.8736 108.836 43.1596 109.033 44.4785C109.762 49.426 108.68 54.5512 106.44 59.0262C105.912 60.0776 105.325 61.0954 104.679 62.079C104.041 63.0593 103.352 64.0028 102.612 64.9081C100.95 66.9702 99.0537 68.8546 97.0266 70.5625C93.2029 73.7859 88.921 76.414 84.5416 78.8206C81.7978 80.3243 79.0106 81.7441 76.1795 83.0804C76.1078 83.0475 76.0315 83.0106 75.9611 82.9783C73.1572 81.6794 70.3939 80.2939 67.6714 78.8218C63.2687 76.4399 58.9681 73.8221 55.1373 70.6013C51.8856 67.8665 48.9698 64.6755 46.794 61.036C47.0719 61.7222 47.3756 62.3963 47.7065 63.0593C49.9463 67.5363 53.3085 71.3877 57.14 74.6117C60.9714 77.8351 65.2713 80.4445 69.6727 82.8284C72.3901 84.2986 75.1527 85.6841 77.9618 86.9849C78.0342 87.0178 78.1098 87.0547 78.1802 87.0876C81.0094 85.7513 83.7972 84.3315 86.5442 82.8284C90.9237 80.4225 95.2075 77.7969 99.0285 74.5704C101.056 72.8631 102.952 70.9787 104.614 68.916C105.355 68.0106 106.044 67.0678 106.681 66.0868C107.327 65.1033 107.914 64.0861 108.442 63.0347C110.682 58.5603 111.764 53.4358 111.035 48.4883Z" fill="#CF2128"/>
<path d="M57.0941 37.2734C57.1613 37.3568 57.2137 37.4505 57.2505 37.5551C57.2874 37.6605 57.308 37.7742 57.3132 37.897C57.3177 38.0204 57.3067 38.1497 57.2796 38.286C57.2525 38.4224 57.2098 38.5626 57.1523 38.7074C57.0941 38.8515 57.0218 38.9975 56.9345 39.1442C56.8479 39.2915 56.7484 39.4369 56.636 39.5804C56.5242 39.7245 56.4014 39.8641 56.2683 39.9991C56.1345 40.1342 55.9936 40.2628 55.8443 40.3843C55.6951 40.5051 55.5406 40.6176 55.381 40.7203C55.2214 40.8231 55.0598 40.9148 54.8963 40.9956C54.7322 41.0757 54.57 41.1436 54.4084 41.1985C54.2469 41.2535 54.0899 41.2942 53.9367 41.322C53.7836 41.3491 53.6375 41.362 53.4986 41.3601C53.3596 41.3588 53.231 41.3433 53.1115 41.3129C52.9926 41.2832 52.8853 41.2392 52.7903 41.1817C52.6953 41.1242 52.6139 41.0538 52.5467 40.9711C52.4795 40.8883 52.4278 40.794 52.391 40.6893C52.3541 40.5846 52.3334 40.4702 52.3283 40.3475C52.3231 40.2247 52.3341 40.0948 52.3612 39.9584C52.3884 39.8221 52.431 39.6819 52.4892 39.5371C52.5473 39.393 52.6197 39.2469 52.7063 39.1003C52.7929 38.9536 52.8924 38.8082 53.0049 38.6641C53.1173 38.52 53.2401 38.3804 53.3732 38.2453C53.5063 38.1102 53.6478 37.9816 53.7971 37.8608C53.9464 37.7393 54.1008 37.6269 54.2605 37.5241C54.4201 37.4214 54.5816 37.3296 54.7451 37.2488C54.9086 37.1687 55.0715 37.1009 55.233 37.0459C55.3946 36.991 55.5516 36.9503 55.7048 36.9231C55.8579 36.8954 56.004 36.8831 56.1423 36.8844C56.2812 36.8857 56.4104 36.9012 56.5293 36.9315C56.6489 36.9619 56.7562 37.0052 56.8512 37.0627C56.9461 37.1209 57.0269 37.1907 57.0941 37.2734Z" fill="white"/>
<path fill-rule="evenodd" clip-rule="evenodd" d="M81.9354 48.8193C81.9154 48.8561 81.6918 49.2568 81.2763 49.3149C80.8737 49.3692 80.5021 49.0739 80.3477 48.8193C80.0304 48.29 80.3179 47.3666 81.1483 46.6099C81.9225 47.3776 82.2346 48.2648 81.9354 48.8193Z" fill="#A6D1EF"/>
<path fill-rule="evenodd" clip-rule="evenodd" d="M83.9755 44.0224C83.9555 44.0592 83.7313 44.4599 83.3164 44.5181C82.9138 44.5723 82.5422 44.277 82.3878 44.0224C82.0698 43.4932 82.3581 42.5697 83.1885 41.813C83.9626 42.5807 84.2741 43.4686 83.9755 44.0224Z" fill="#A6D1EF"/>
<path d="M46.7927 87.0863C39.0284 87.0863 32.7142 80.7618 32.7142 72.989C32.7142 65.2157 39.0284 58.8911 46.7927 58.8911C54.5564 58.8911 60.8732 65.2182 60.8732 72.989C60.8732 80.7592 54.557 87.0863 46.7927 87.0863Z" fill="#3A2017"/>
<path d="M59.6285 72.9892C59.6285 80.0873 53.8837 85.8412 46.7914 85.8412C46.6118 85.8412 46.4328 85.8412 46.2557 85.8283C39.4155 85.5491 33.9536 79.9102 33.9536 72.9912C33.9536 65.8931 39.7017 60.1392 46.7908 60.1392C46.8599 60.1392 46.9303 60.1392 46.9995 60.1417C53.9955 60.2535 59.6285 65.9609 59.6285 72.9892Z" fill="#DADBDC"/>
<path d="M58.6334 73.3702C58.6334 79.9177 53.3344 85.2232 46.7934 85.2232C46.6299 85.2232 46.4631 85.2232 46.3022 85.2122C39.9893 84.9543 34.954 79.7523 34.954 73.3702C34.954 66.8221 40.253 61.5166 46.7934 61.5166C46.858 61.5166 46.9226 61.5166 46.9872 61.5166C53.4371 61.6226 58.6334 66.8867 58.6334 73.3702Z" fill="white"/>
<path d="M45.8699 82.7601L46.0367 80.7859C41.8194 80.4286 38.6646 76.7561 38.9115 72.5499L36.9398 72.3857C36.6012 77.6776 40.5658 82.311 45.8699 82.7601Z" fill="#A6D1EF"/>
<path d="M54.4634 73.664L56.4356 73.8314C56.8828 68.5324 53.0049 63.8512 47.7537 63.2793L47.5863 65.2535C51.7512 65.733 54.8194 69.4539 54.4634 73.664Z" fill="#EC2027"/>
<path d="M47.3511 65.2272C47.4292 65.2336 47.5074 65.244 47.5863 65.253L47.7536 63.2788C47.6748 63.2704 47.596 63.2594 47.5171 63.253C42.1458 62.798 37.4057 66.8046 36.9515 72.1818C36.9463 72.249 36.9437 72.3156 36.9398 72.3828L38.9114 72.5469C38.9153 72.4804 38.9179 72.4131 38.9237 72.3459C39.2856 68.0622 43.0666 64.8647 47.3511 65.2272Z" fill="#F9A01B"/>
<path d="M52.6837 76.1563H52.2707V75.4125H51.5166V76.1563H51.1056V74.3301H51.5166V75.0584H52.2707V74.3307H52.6824L52.6837 76.1563Z" fill="#010101"/>
<path d="M53.2653 74.6471C53.2013 74.6491 53.1457 74.629 53.0986 74.5864C53.0546 74.547 53.0333 74.4972 53.0339 74.4378C53.032 74.3783 53.054 74.3292 53.0986 74.2904C53.1477 74.2523 53.2032 74.2329 53.2659 74.2329C53.328 74.2329 53.3835 74.2523 53.4326 74.2904C53.4772 74.3298 53.4986 74.379 53.4966 74.4378C53.4986 74.4979 53.4772 74.5483 53.4326 74.5883C53.3848 74.6303 53.3286 74.6497 53.2653 74.6471ZM53.4643 76.1561H53.0617V74.8533H53.4643V76.1561Z" fill="#010101"/>
<path d="M55.0792 76.0085C55.0792 76.2508 55.0094 76.4382 54.8698 76.5707C54.7296 76.7032 54.5273 76.7697 54.2617 76.7704C54.117 76.7768 53.9774 76.7516 53.8443 76.6948V76.3562C53.969 76.4324 54.1041 76.4718 54.2501 76.4731C54.3703 76.4802 54.475 76.444 54.5655 76.3639C54.6449 76.2831 54.6818 76.1856 54.6747 76.0718V75.9684H54.674C54.6314 76.0395 54.5739 76.0951 54.5015 76.1339C54.4285 76.1733 54.3509 76.1914 54.2682 76.1875C54.1919 76.1907 54.1196 76.1765 54.0498 76.1455C53.98 76.1151 53.9212 76.0699 53.8727 76.0111C53.7751 75.8941 53.726 75.7371 53.726 75.5406C53.726 75.3196 53.7809 75.1439 53.8902 75.0146C53.9425 74.95 54.0065 74.9009 54.0821 74.8666C54.157 74.833 54.2365 74.8169 54.3186 74.8195C54.3903 74.8156 54.4582 74.8304 54.5215 74.8627C54.5855 74.8957 54.6365 74.9422 54.6753 75.003H54.6798V74.8511H55.0818L55.0792 76.0085ZM54.6824 75.5309V75.4275C54.6844 75.3487 54.6598 75.2783 54.6094 75.2175C54.5603 75.1568 54.497 75.1277 54.4188 75.1296C54.3302 75.1264 54.2604 75.1613 54.2094 75.2343C54.1519 75.3241 54.126 75.4217 54.1325 75.5284C54.128 75.6227 54.1519 75.7086 54.2055 75.7868C54.2553 75.8528 54.3212 75.8844 54.4039 75.8812C54.4873 75.8838 54.5545 75.8515 54.6055 75.7849C54.6611 75.7093 54.6869 75.6246 54.6824 75.5309Z" fill="#010101"/>
<path d="M56.6657 76.1562H56.265V75.4163C56.265 75.225 56.1952 75.1293 56.0563 75.1293C55.9852 75.1274 55.9277 75.1539 55.8831 75.2101C55.8366 75.2696 55.8139 75.3374 55.8172 75.4137V76.1562H55.4152V74.2266H55.8172V75.0466H55.821C55.8624 74.9762 55.9193 74.9206 55.991 74.8799C56.0627 74.8398 56.1396 74.8204 56.2217 74.8217C56.517 74.8217 56.6644 75.0001 56.6644 75.3562L56.6657 76.1562Z" fill="#010101"/>
<path d="M47.4997 82.6652H46.4127V80.8364H46.8237V82.3285H47.4997V82.6652Z" fill="#010101"/>
<path d="M48.3255 82.6941C48.1071 82.6941 47.9365 82.6333 47.8137 82.5112C47.7498 82.4453 47.7019 82.369 47.669 82.2824C47.6367 82.1965 47.6231 82.1073 47.6276 82.0155C47.6276 81.799 47.6922 81.6304 47.8208 81.5089C47.9501 81.3874 48.1246 81.3267 48.3436 81.3267C48.5601 81.3267 48.7294 81.3874 48.8522 81.5089C48.984 81.6433 49.0454 81.8049 49.037 81.9923C49.037 82.2081 48.9737 82.3794 48.847 82.5054C48.7204 82.632 48.5465 82.6947 48.3255 82.6941ZM48.3365 81.6343C48.246 81.6297 48.1724 81.6627 48.1149 81.7325C48.0561 81.8158 48.0296 81.9083 48.036 82.0104C48.036 82.2604 48.1368 82.3858 48.3391 82.3858C48.531 82.3858 48.6273 82.2579 48.6273 82.0033C48.6273 81.757 48.5304 81.6343 48.3372 81.6343H48.3365Z" fill="#010101"/>
<path d="M51.1845 81.3584L50.809 82.6651H50.387L50.1944 81.8993C50.1815 81.8444 50.1744 81.7888 50.1731 81.7326H50.1654C50.1615 81.7875 50.1531 81.8424 50.1402 81.8967L49.934 82.6651H49.5166L49.1489 81.361H49.5586L49.7382 82.2114C49.7479 82.2592 49.7537 82.3077 49.757 82.3568H49.7647C49.7679 82.3058 49.7757 82.256 49.788 82.2062L50.0116 81.361H50.3941L50.5945 82.2114C50.6035 82.2605 50.6093 82.3096 50.6126 82.3594H50.6216C50.6255 82.3103 50.6326 82.2612 50.6423 82.2114L50.8109 81.361L51.1845 81.3584Z" fill="#010101"/>
<path d="M48.2364 71.7691C48.1898 71.7135 48.1401 71.6612 48.0877 71.6114C48.0354 71.5616 47.9798 71.5151 47.9223 71.4718C47.8641 71.4285 47.804 71.3891 47.742 71.3523C47.6793 71.3161 47.6153 71.2831 47.5488 71.254C47.4829 71.225 47.415 71.2004 47.3465 71.1791C47.2774 71.1578 47.2069 71.1403 47.1365 71.1274C47.0654 71.1138 46.9937 71.1048 46.9213 71.0996C46.8496 71.0951 46.7772 71.0938 46.7055 71.097C46.6331 71.1002 46.5614 71.108 46.4903 71.1196C46.4185 71.1306 46.3481 71.1461 46.279 71.1662C46.2092 71.1855 46.1413 71.2088 46.0741 71.2366C46.0075 71.2637 45.9423 71.2948 45.879 71.3296C45.8163 71.3645 45.7549 71.4033 45.6961 71.4453C45.6373 71.4867 45.581 71.5319 45.5274 71.5804C45.4738 71.6288 45.4227 71.6799 45.3749 71.7342C45.3271 71.7885 45.2825 71.8453 45.2411 71.9041C45.1998 71.9636 45.1623 72.025 45.1274 72.089C45.0931 72.1523 45.0628 72.2176 45.0363 72.2848C45.0091 72.352 44.9865 72.4205 44.9671 72.4903C44.9484 72.56 44.9335 72.6305 44.9225 72.7022C44.9116 72.7739 44.9051 72.8457 44.9025 72.9181C44.8999 72.9898 44.9012 73.0622 44.907 73.1345C44.9122 73.2063 44.9219 73.278 44.9361 73.3491C44.9497 73.4202 44.9678 73.49 44.9898 73.5585C45.0111 73.6276 45.0369 73.6948 45.0667 73.7614C45.0964 73.8273 45.1293 73.8913 45.1662 73.9533C45.203 74.0153 45.2437 74.0754 45.287 74.1329C45.331 74.1905 45.3781 74.2454 45.4279 74.2971C45.4776 74.3494 45.5306 74.3985 45.5862 74.4444C45.6418 74.491 45.6999 74.5336 45.7607 74.573C45.8214 74.6124 45.8841 74.648 45.9487 74.6803C46.0134 74.7126 46.0793 74.741 46.1471 74.7656C46.215 74.7902 46.2841 74.8108 46.3546 74.8276C46.425 74.8444 46.4961 74.8567 46.5678 74.8658C46.6396 74.8742 46.7113 74.8787 46.7837 74.8787C46.856 74.8787 46.9278 74.8748 46.9995 74.8671C47.0712 74.8593 47.1423 74.847 47.2127 74.8309C47.2832 74.8147 47.3523 74.7947 47.4202 74.7708C47.4887 74.7462 47.5552 74.7184 47.6199 74.6868C47.6851 74.6551 47.7478 74.6196 47.8086 74.5808C47.8693 74.542 47.9281 74.4994 47.9837 74.4541C48.0399 74.4082 48.0929 74.3591 48.1433 74.3074C48.1937 74.2557 48.2409 74.2014 48.2855 74.1439C48.3294 74.0871 48.3701 74.0276 48.4076 73.9656C48.4451 73.9035 48.4787 73.8402 48.5091 73.7743C48.5388 73.7084 48.5653 73.6412 48.5873 73.5727C48.6099 73.5035 48.628 73.4337 48.6422 73.3627C48.657 73.2922 48.6674 73.2205 48.6732 73.1488C48.6952 72.8987 48.668 72.6544 48.5918 72.4153C48.5162 72.1762 48.3979 71.9604 48.2364 71.7691Z" fill="#3A2017"/>
<path d="M53.4798 67.2637C53.4798 67.2637 52.926 67.6159 52.1144 68.1639C51.7079 68.4379 51.2336 68.761 50.7321 69.1125C50.2306 69.464 49.7007 69.8447 49.1702 70.2253C48.9052 70.4159 48.6332 70.5982 48.3631 70.7726C48.0968 70.9407 47.8403 71.1229 47.5947 71.3193C47.1676 71.6845 46.7811 72.0883 46.4354 72.531C46.1782 72.8502 45.9488 73.1882 45.7478 73.5449C45.6664 73.6871 45.5934 73.8325 45.5287 73.9824L45.625 74.0961C45.625 74.0961 45.6586 74.089 45.7194 74.0722C45.7058 74.1026 45.6993 74.1188 45.6993 74.1188L45.795 74.2319C45.9533 74.1944 46.1084 74.1472 46.2609 74.091C46.6461 73.9514 47.0176 73.7821 47.375 73.5824C47.8694 73.3155 48.3314 73.0021 48.7631 72.6415C48.9977 72.4321 49.22 72.2105 49.43 71.9759C49.6484 71.7387 49.8746 71.5016 50.1066 71.2709C50.5705 70.8121 51.0384 70.3584 51.4649 69.917C51.9502 69.4136 52.3276 69.0304 52.6301 68.7138C53.0514 68.2698 53.4197 67.8724 53.7254 67.5377L53.4798 67.2637Z" fill="#3A2017"/>
<path d="M106.779 80.784C106.059 79.12 101.878 78.815 100.799 80.5837C100.316 81.376 100.512 82.4907 100.978 83.2267C101.763 84.4649 103.483 84.8901 104.848 84.315C106.394 83.6649 107.236 81.8399 106.779 80.784Z" fill="#3A2017"/>
<path d="M33.9582 76.584C32.1552 76.4198 30.5571 72.5373 31.9 70.9593C32.5009 70.2523 33.6196 70.0901 34.4635 70.3027C35.8839 70.6633 36.8242 72.1664 36.7033 73.6443C36.5708 75.3174 35.1026 76.6887 33.9582 76.584Z" fill="#3A2017"/>
<path d="M38.0248 53.8897C35.7004 56.7337 32.4938 58.0901 30.2857 57.3308C29.9109 57.2048 29.5697 57.0161 29.2627 56.7666C27.1425 55.029 27.6194 50.9229 30.3361 47.5962C32.5048 44.9402 35.4425 43.5857 37.6196 44.0323C38.0888 44.1227 38.5185 44.305 38.9101 44.579C38.9735 44.6229 39.0368 44.6714 39.0982 44.7211C39.4775 45.0332 39.7728 45.4106 39.9854 45.8527C40.9819 47.8915 40.2594 51.1523 38.0248 53.8897Z" fill="#3A2017"/>
<path d="M40.1011 45.7379C40.0662 45.7799 40.0281 45.818 39.9854 45.8523C39.6843 46.1043 39.2177 46.1405 38.7621 45.9699C38.5605 45.8936 38.377 45.7864 38.2109 45.6494C37.65 45.1918 37.4206 44.5172 37.6196 44.0319C37.6519 43.9524 37.6952 43.8794 37.7495 43.8134C38.0313 43.4677 38.545 43.3876 39.0516 43.5666C39.2675 43.6428 39.4633 43.7534 39.6404 43.8988C40.2885 44.4299 40.4966 45.2565 40.1011 45.7379Z" fill="#3A2017"/>
<path d="M27.6918 56.8412L28.9493 55.3013L30.7581 56.7824L29.5012 58.3217L27.6918 56.8412Z" fill="#3A2017"/>
<path d="M35.5337 45.2579C35.5498 45.2896 35.5601 45.3239 35.564 45.3613C35.5673 45.3988 35.5647 45.4389 35.5556 45.4809C35.5459 45.5229 35.5304 45.5662 35.5084 45.6114C35.4865 45.656 35.4587 45.7019 35.4251 45.7478C35.3915 45.7943 35.3527 45.8402 35.3081 45.8861C35.2642 45.9313 35.2157 45.9759 35.1627 46.0192C35.1097 46.0625 35.0529 46.1038 34.9934 46.1433C34.9333 46.1827 34.8713 46.2195 34.8073 46.2531C34.7433 46.2867 34.6781 46.3177 34.6115 46.3442C34.5456 46.3714 34.4797 46.3946 34.4138 46.414C34.3478 46.4334 34.2839 46.4483 34.2212 46.4586C34.1585 46.4696 34.099 46.4754 34.0415 46.4774C33.9847 46.4793 33.931 46.4761 33.8819 46.469C33.8322 46.4612 33.7876 46.4496 33.7481 46.4334C33.7081 46.4173 33.6738 46.3972 33.6448 46.3727C33.6163 46.3488 33.5937 46.321 33.5769 46.2893C33.5601 46.2576 33.5504 46.2234 33.5465 46.1859C33.5427 46.1484 33.5452 46.1084 33.5549 46.0664C33.564 46.0244 33.5795 45.9811 33.6015 45.9358C33.6234 45.8912 33.6512 45.8454 33.6848 45.7995C33.7184 45.7529 33.7578 45.7071 33.8018 45.6612C33.8464 45.6159 33.8948 45.5714 33.9478 45.5281C34.0008 45.4848 34.057 45.4434 34.1171 45.404C34.1766 45.3646 34.2386 45.3277 34.3026 45.2941C34.3672 45.2599 34.4325 45.2295 34.4984 45.2024C34.565 45.1759 34.6309 45.1526 34.6968 45.1332C34.7621 45.1138 34.826 45.099 34.8887 45.0886C34.9514 45.0776 35.0115 45.0712 35.0684 45.0699C35.1259 45.068 35.1789 45.0712 35.2286 45.0783C35.2777 45.0854 35.3223 45.0977 35.3624 45.1138C35.4025 45.13 35.4367 45.15 35.4652 45.1739C35.4942 45.1985 35.5168 45.2263 35.5337 45.2579Z" fill="white"/>
<path d="M78.1182 66.3705H82.9157C84.5313 66.3705 84.5545 64.7091 83.7254 63.4309C81.1386 59.4469 75.11 59.1923 72.4295 63.4309C71.6159 64.7194 71.6237 66.3705 73.2399 66.3705H78.1188H78.1182Z" fill="#3A2017"/>
<path d="M73.6238 62.0137C76.2972 63.4528 79.8378 63.522 82.5403 62.0609C80.0466 59.8476 76.1621 59.7293 73.6238 62.0137Z" fill="#3A2017"/>
<path d="M78.1182 66.3705H82.9157C84.5313 66.3705 84.5545 64.7091 83.7254 63.4309C81.1386 59.4469 75.11 59.1923 72.4295 63.4309C71.6159 64.7194 71.6237 66.3705 73.2399 66.3705H78.1188H78.1182Z" fill="#3A2017"/>
<path d="M63.23 53.0229L67.4769 57.2751L63.23 53.0229Z" fill="#3A2017"/>
<path d="M62.901 53.3493L63.5576 52.6914L67.8039 56.9435L67.1473 57.6007L62.901 53.3493Z" fill="#262626"/>
<path d="M67.4769 53.0234L63.23 57.2749L67.4769 53.0234Z" fill="#3A2017"/>
<path d="M62.9023 56.9483L67.1487 52.6968L67.8059 53.354L63.5589 57.6055L62.9023 56.9483Z" fill="#262626"/>
<path d="M88.6845 53.0229L92.9308 57.2751L88.6845 53.0229Z" fill="#3A2017"/>
<path d="M88.3543 53.3481L89.0109 52.6909L93.2578 56.9424L92.6006 57.5996L88.3543 53.3481Z" fill="#262626"/>
<path d="M92.9308 53.0234L88.6845 57.2749L92.9308 53.0234Z" fill="#3A2017"/>
<path d="M88.3582 56.9487L92.6045 52.6973L93.261 53.3545L89.0147 57.6059L88.3582 56.9487Z" fill="#262626"/>
</svg>
