<svg width="1440" height="560" viewBox="0 0 1440 560" fill="none" xmlns="http://www.w3.org/2000/svg">
<g clip-path="url(#clip0_98_843)">
<mask id="mask0_98_843" style="mask-type:luminance" maskUnits="userSpaceOnUse" x="0" y="0" width="1440" height="560">
<path d="M1440 0H0V560H1440V0Z" fill="white"/>
</mask>
<g mask="url(#mask0_98_843)">
<path d="M0 450C96 435 288 368.4 480 375C672 381.6 768 491.4 960 483C1152 474.6 1344 363 1440 333V560H0V450Z" fill="#5F98E3"/>
</g>
<g clip-path="url(#clip1_98_843)">
<g clip-path="url(#clip2_98_843)">
<mask id="mask1_98_843" style="mask-type:luminance" maskUnits="userSpaceOnUse" x="0" y="-36" width="1440" height="560">
<path d="M1440 -36H0V524H1440V-36Z" fill="white"/>
</mask>
<g mask="url(#mask1_98_843)">
<path d="M0 412C96 390.4 288 293.4 480 304C672 314.6 768 475.6 960 465C1152 454.4 1344 293.8 1440 251V524H0V412Z" fill="#5F98E3" fill-opacity="0.52"/>
</g>
</g>
<mask id="mask2_98_843" style="mask-type:luminance" maskUnits="userSpaceOnUse" x="0" y="36" width="1440" height="560">
<path d="M1440 36H0V596H1440V36Z" fill="white"/>
</mask>
<g mask="url(#mask2_98_843)">
<path d="M0 406C96 427.8 288 520 480 515C672 510 768 376 960 381C1152 386 1344 508.2 1440 540V596H0V406Z" fill="#5F98E3" fill-opacity="0.52"/>
</g>
</g>
</g>
<defs>
<clipPath id="clip0_98_843">
<rect width="1440" height="560" fill="white"/>
</clipPath>
<clipPath id="clip1_98_843">
<rect width="1440" height="560" fill="white" transform="translate(0 36)"/>
</clipPath>
<clipPath id="clip2_98_843">
<rect width="1440" height="560" fill="white" transform="translate(0 -36)"/>
</clipPath>
</defs>
</svg>
